<svg xmlns="http://www.w3.org/2000/svg" viewBox="0 0 300 300"><defs><style>.cls-1{isolation:isolate;}.cls-2{fill:#f3921a;}.cls-14,.cls-25,.cls-26,.cls-3{fill:#b2b2bf;}.cls-16,.cls-18,.cls-22,.cls-25,.cls-26,.cls-27,.cls-3,.cls-5,.cls-6{mix-blend-mode:multiply;}.cls-4{fill:#be8764;}.cls-18,.cls-5,.cls-6{fill:#7a5743;}.cls-26,.cls-27,.cls-5{opacity:0.7;}.cls-16,.cls-6{opacity:0.3;}.cls-7{fill:#cdcdd7;}.cls-11,.cls-20,.cls-24,.cls-8{fill:none;}.cls-11,.cls-8{stroke:#8f90a0;stroke-linecap:round;stroke-linejoin:round;}.cls-8{stroke-width:1.35px;}.cls-9{fill:#1b1934;}.cls-10{fill:#454560;}.cls-11,.cls-24{stroke-width:1.8px;}.cls-12{fill:#515372;}.cls-13{fill:#8f90a0;}.cls-15{fill:#ffa488;}.cls-16,.cls-23{fill:#ef795c;}.cls-17{fill:#ffccb6;}.cls-18{opacity:0.75;}.cls-19,.cls-27{fill:#cedef4;}.cls-20{stroke:#f9b450;stroke-width:5.64px;}.cls-20,.cls-24{stroke-miterlimit:10;}.cls-21{fill:#f9b450;}.cls-22{fill:#dddde5;}.cls-24{stroke:#8f8fa0;}.cls-25{opacity:0.8;}.cls-28,.cls-29{fill:#f1f2f8;}.cls-29{opacity:0.5;}</style></defs><title>DealsOnWheels</title><g class="cls-1"><g id="Layer_1" data-name="Layer 1"><path class="cls-2" d="M216.06,200.55s-7.73,27.32-3.45,21.32l12.55-21.75,3.48-7.9-.38-6.28s.35-5.14-4.78-.47L219,197Z"/><path class="cls-3" d="M216.06,200.55s-7.67,27.38-3.4,21.38l12.5-21.81,3.48-7.9-.38-6.28s.35-5.14-4.78-.47L219,197Z"/><path class="cls-4" d="M143.17,84.37s9.49,6.45,26.73,1.1l8-.48,5.8,11.37s2.32,10,9.35,6.45l-8.48-28.29s-2-6-19.82-5.75S143.22,74,143.22,74l-.93,10.37Z"/><path class="cls-5" d="M143.17,84.37s9.49,6.45,26.73,1.1l8-.48,5.8,11.37s2.32,10,9.35,6.45l-8.48-28.29s-2-6-19.82-5.75S143.22,74,143.22,74l-.93,10.37Z"/><polygon class="cls-6" points="104.02 100.56 95.06 93.51 75.21 91.05 98.33 106.09 104.02 100.56"/><path class="cls-7" d="M172.31,137.08s6,7.86,3.62,12.19c0,0-3.48,2.72,1.1,5.51,0,0,1.12,3.23-.34,5.5,0,0-.6,2.52,6,5.8,0,0,1.16-.45,1.2-5.26l-4.64-25.73Z"/><path class="cls-7" d="M153.64,144.46c.12,1.82,0,6.18-3.82,8.1l-.31.19a3.89,3.89,0,0,0-1,5.41,2.13,2.13,0,0,1,0,2.19L147,163a2.16,2.16,0,0,0,.61,2.81h0a2,2,0,0,0,2.89-.69l9.89-17.83a2.17,2.17,0,0,0,.12-1.83L160,144a2.22,2.22,0,0,0-.73-.95l-1.75-1.25a2,2,0,0,0-2.7.37l-.67.83A2.17,2.17,0,0,0,153.64,144.46Z"/><line class="cls-8" x1="160.06" y1="144.22" x2="149.36" y2="163.82"/><path class="cls-9" d="M153.64,127.87c-1,2.52-2.61,6.44-4,10.39a2.68,2.68,0,0,0,1.17,3.22c2.59,1.44,7.4,4.13,11.82,6.53a4,4,0,0,0,5.24-1.4c2-3.07,4.83-7.8,6-11.2a148.68,148.68,0,0,0-16.47-9.06A2.78,2.78,0,0,0,153.64,127.87Z"/><path class="cls-10" d="M154.3,126.61c-1,2.52-2.6,6.44-4,10.39a2.65,2.65,0,0,0,1.16,3.21c2.59,1.45,7.4,4.13,11.82,6.54a4,4,0,0,0,5.25-1.4c2-3.07,4.83-7.8,6-11.2a148.68,148.68,0,0,0-16.47-9.06A2.78,2.78,0,0,0,154.3,126.61Z"/><ellipse class="cls-9" cx="162.69" cy="132.99" rx="2.81" ry="2.92"/><path class="cls-11" d="M166,132a10.53,10.53,0,0,1-3.58-.85"/><line class="cls-11" x1="177.88" y1="139.18" x2="181.63" y2="160.84"/><path class="cls-12" d="M163.6,128.64a47,47,0,0,0,2.51,13.63,2.11,2.11,0,0,0,2.26,1.38c3.49-.52,11.94-1.89,17.48-3.71,0,0-1.52-10.27-3.79-15.23C182.06,124.71,174.14,124.33,163.6,128.64Z"/><path class="cls-13" d="M163.27,127.15a47,47,0,0,0,2.51,13.63,2.11,2.11,0,0,0,2.26,1.38c3.48-.52,11.94-1.89,17.48-3.71,0,0-1.53-10.27-3.79-15.23C181.73,123.22,173.81,122.84,163.27,127.15Z"/><ellipse class="cls-9" cx="173.31" cy="128.89" rx="2.81" ry="2.92"/><path class="cls-14" d="M166.55,108.06a11.78,11.78,0,0,0-12,11.62,12.33,12.33,0,0,0,1.07,5.47l0,0a.76.76,0,0,1,.2-.12,2.92,2.92,0,0,1,1.43-.15,1,1,0,0,0-.06-.55,10.37,10.37,0,0,1-.9-4.64,9.82,9.82,0,1,1,19.61.7,10.29,10.29,0,0,1-4.6,8.3.93.93,0,0,0-.28,1.26.86.86,0,0,0,.75.43.78.78,0,0,0,.46-.14,12.12,12.12,0,0,0,5.43-9.79A11.86,11.86,0,0,0,166.55,108.06Z"/><path class="cls-15" d="M130.07,187.75s8.82-4.41,14.65,4.15c0,0,10.21-3.83,20.39,5.71,0,0-15.75-19.85-2.26-14.72l5.79,3.87s2.55,4.23,14,.37l17.2-4.43-.81,13.46-19.73,12.77-20.08,3.61L138.86,196.4Z"/><path class="cls-16" d="M130.07,187.75s8.82-4.41,14.65,4.15c0,0,10.21-3.83,20.39,5.71,0,0-15.75-19.85-2.26-14.72l5.79,3.87s2.55,4.23,14,.37l17.2-4.43-.81,13.46-19.73,12.77-20.08,3.61L138.86,196.4Z"/><path class="cls-17" d="M228.05,188l-18.8-6.45s-6.32-5.16-15.64,4.61l-24.19,15.46s-3.44,5-9.94.83l-12.12-7.3s-7.13-2.79-7.46.62c0,0-11.41-14.61-19.2-10.58,0,0-9.06,1.92,13,18.25l35.08,21.77s4.59,5.94,15.72-2.14l17.93-11.25,17.34,8.88,4.61-6.37,5.1-20.83-1.21-3.77A1,1,0,0,0,228.05,188Z"/><path class="cls-4" d="M74.15,85.28l7.61-7.68,12.62-8.12,52.27-15s4.77-2,11.29,5.6l19.72,17.52s4.14,2.63,1.86,11.73l-5.33,21.14s-3.89,6.51-6.62,0l2.2-20s-.69-2.47-7.62-6.39l-9.25-4.91s-5.9-4-6.58,3.13l.91,8.29a22.35,22.35,0,0,0,7.38,8.21l10.53,8.44s4.11,9.32-4.61,6l-17-9L136.59,101a23.82,23.82,0,0,0-8.87,1.52s-13.12,5.35-23.47-2L97,106Z"/><polygon class="cls-18" points="104.02 100.56 95.06 93.51 75.21 91.05 98.33 106.09 104.02 100.56"/><polygon class="cls-19" points="60.4 98.55 73.03 83.71 102.85 107.09 89.93 126.44 60.4 98.55"/><path class="cls-19" d="M7.09,154.23l50.15-57.1a2,2,0,0,1,3.1.26c2.38,3.56,8.38,10.86,20.72,17.26a80.48,80.48,0,0,1,9.21,6.06c6.36,4.87.91,10.49-4.08,16.86C79.88,145.62,76.61,161.18,66,171L51.27,196.85a3.61,3.61,0,0,1-5.47,1.07c-3.76-3.07-10.52-8.41-19.26-14.54a27,27,0,0,1-6.12-6C16.57,172.27,9.87,162.59,7.09,154.23Z"/><path class="cls-16" d="M226.43,215.51c-5.84,3.56-15.73-4.85-20.73-9.62l3.09-6.65-9.59,7.91-12.46,5.61-11.45,4a9.22,9.22,0,0,1-7.44-.62,134.39,134.39,0,0,1-27.95-20.33c-6.8,8.17-18.5-10.5-18.5-10.5-11.16,3.16,19.18,22.41,19.18,22.41l25,15.16c9.67,8.34,16.44,1.91,16.44,1.91l20.49-12.93L212,217l7.56,2.67,5.3-7.56C225.52,210.53,227.31,215,226.43,215.51Z"/><path class="cls-2" d="M286.78,223c1.34-9.73,10.24-13.44,3.84-16.42s-22.51-4-28.93-7l-34.33-16h0a5.17,5.17,0,0,1,.9,2.32c.25,4.12-2.5,9.38-4.14,13.1l-4.5,11.27-6.89,11.51c-.5.71-.85,1-1.07.89l0,.07,2.81,2.6a14.27,14.27,0,0,0,4,2.63l8.32,3.68,47.86,28.22,8.32,1c4.48.51,3.32-32.28,3.49-34.73C286.49,225.08,286.63,224,286.78,223Z"/><path class="cls-20" d="M242.14,190.39c-1.81,5.19-2.35,5-4.16,10.2s-2.31,5-4.11,10.22-2.86,4.83-4.67,10-.3,5.72-2.11,10.92"/><path class="cls-21" d="M247.67,244.21l-4.8-3.1a6.52,6.52,0,0,0,.55-3.15,13.77,13.77,0,0,1,.64-5.84,12,12,0,0,1,3-5.07,6.74,6.74,0,0,0,1.79-3,10.34,10.34,0,0,0,.56-3.79,16.17,16.17,0,0,1,.83-5.56,37.78,37.78,0,0,1,1.77-4.63,32.32,32.32,0,0,0,1.53-4,31.69,31.69,0,0,1,1.84-4.67,24.76,24.76,0,0,0,1.55-3.93l4.68,1.76a30.36,30.36,0,0,1-1.84,4.66,26.45,26.45,0,0,0-1.55,3.94,36.83,36.83,0,0,1-1.77,4.62,33,33,0,0,0-1.53,4,10.58,10.58,0,0,0-.56,3.8,15.71,15.71,0,0,1-.83,5.56,12,12,0,0,1-3,5.07,6.74,6.74,0,0,0-1.79,3,8,8,0,0,0-.38,3.65A17.9,17.9,0,0,1,247.67,244.21Z"/><path class="cls-21" d="M268.3,256.3l-5.12-3a22.67,22.67,0,0,1,2.3-6.69,16.78,16.78,0,0,0,1.8-5.21,25.15,25.15,0,0,0,.54-5.72,30.73,30.73,0,0,1,.64-6.86c.62-3.17,1.05-4.76,1.46-6.29s.79-2.93,1.37-5.9a63.7,63.7,0,0,1,1.52-6.32c.42-1.49.66-3.72,1.23-6.68l5.29,1.48a64.46,64.46,0,0,1-1.8,6.8c-.42,1.48-.82,2.89-1.4,5.84-.62,3.17-1,4.76-1.46,6.3s-.78,2.92-1.36,5.89a25.11,25.11,0,0,0-.54,5.72,30.89,30.89,0,0,1-.65,6.86,22.11,22.11,0,0,1-2.3,6.68C269.14,250.54,268.83,253.62,268.3,256.3Z"/><path class="cls-22" d="M223.86,200.31s1.9,17.74,20.81,25.82c0,0,13,1.49,16,7.51,0,0,14.82,12.79,25.38,16l-.9,8.1a3.28,3.28,0,0,1-3.44,3.06l-7.05-.63s-5.66-3.9-6.53-4.25-23.67-13.71-23.67-13.71l-17.89-10.57-9.4-4.19-5.55-4.64,7.83-11.94Z"/><path class="cls-23" d="M175.82,103.65l-2.31-.46s-2,5.84-1.22,9.17l1.9-1.85Z"/><path class="cls-24" d="M166.52,109a10,10,0,0,1,8.16,4.52"/><path class="cls-25" d="M80.6,89.43,92.78,85c4.48-1.62,9.52-4.57,12.37-.63,4,5.51,10.18,16.6,16.46,14.67l17.5-2s16.46,13.91,26.46,15.59c0,0-.74,4.43-13.67-4L136.59,101a42.51,42.51,0,0,0-13.65,2.85,30.85,30.85,0,0,1-21.46-5l-7.06-5.35L83.64,92.19Z"/><path class="cls-26" d="M170.76,88.28c1.1-1.43,2.86-4.35,2.86-4.35L169,85.46l-.29-.46c-4-3.82-15.73-9.47-15.73-9.47a25.27,25.27,0,0,0-7.79-3.06c-8.09,3.21,2.09,18.16,2.09,18.16l-.62-9.3c.88-6.87,11.31.46,11.31.46,9.12,4.59,11.85,8.72,11.85,8.72L168.66,96c-2.21,21.09,1.91,17.27,1.91,17.27-2.65-2.44,1.32-23.23,1.32-23.23Z"/><path class="cls-27" d="M90.37,122.41l1.4,1,11.08-16.27L96,102,84.48,117.69,59.63,98.56s25.73,27,13.72,43.59c0,0-7.4.13-16.89,6.67,0,0-9.23,46.83-26.72,34.6l17.45,16.06A13.42,13.42,0,0,0,54.94,192l11-20,10-14.56,10.82-20.26s10.9-11,4.43-14.06Z"/><ellipse class="cls-28" cx="76.48" cy="99.29" rx="3.22" ry="2.9" transform="translate(-24.42 173.64) rotate(-88.78)"/><path class="cls-23" d="M158.51,104.45l-2.09,4.47s4,3.55,7.5,3.44l1-.92-.22-2.87Z"/><path class="cls-29" d="M11.5,156.53l17.65-29.75L43,112s-11.47,23.52-11.08,32.83A20.11,20.11,0,0,1,11.5,156.53Z"/></g></g></svg>