<svg width="147" height="45" viewBox="0 0 147 45" fill="none" xmlns="http://www.w3.org/2000/svg">
<path fill-rule="evenodd" clip-rule="evenodd" d="M91.0185 34.5372C82.4941 40.8043 70.12 44.1436 59.4874 44.1436C44.5468 44.1436 31.1186 38.6543 20.9901 29.4596C20.211 28.7276 20.8985 27.767 21.8609 28.3159C32.8143 34.6745 46.38 38.517 60.404 38.517C69.845 38.517 80.2484 36.55 89.781 32.5245C91.2476 31.9298 92.4392 33.4851 91.0185 34.5372Z" fill="#7D7E85"/>
<path fill-rule="evenodd" clip-rule="evenodd" d="M94.5932 30.466C93.4933 29.0937 87.3979 29.8256 84.6481 30.1458C83.8232 30.2373 83.6857 29.5054 84.419 29.0022C89.3228 25.5713 97.2972 26.5777 98.2138 27.7213C99.1304 28.865 97.9847 36.8703 93.4017 40.7128C92.7142 41.3075 92.0268 40.9873 92.3476 40.2096C93.3558 37.6022 95.6932 31.8841 94.5932 30.466Z" fill="#7D7E85"/>
<path fill-rule="evenodd" clip-rule="evenodd" d="M84.8315 4.80318V1.50956C84.8315 1.00637 85.1981 0.686157 85.6564 0.686157H100.597C101.055 0.686157 101.468 1.05211 101.468 1.50956V4.34573C101.468 4.80318 101.055 5.44361 100.322 6.44999L92.5767 17.4745C95.464 17.4287 98.4888 17.8404 101.101 19.3043C101.697 19.6245 101.834 20.1277 101.88 20.5851V24.1532C101.88 24.6564 101.33 25.2053 100.78 24.9309C96.1973 22.5064 90.1019 22.2777 85.0148 24.9766C84.5107 25.2511 83.9607 24.7021 83.9607 24.1989V20.8138C83.9607 20.2649 83.9607 19.35 84.5107 18.5266L93.4475 5.71808H85.6564C85.1981 5.67233 84.8315 5.30637 84.8315 4.80318Z" fill="#7D7E85"/>
<path fill-rule="evenodd" clip-rule="evenodd" d="M30.3853 25.5713H25.8481C25.4357 25.5256 25.069 25.2053 25.0232 24.7936V1.50958C25.0232 1.05213 25.4357 0.686175 25.894 0.686175H30.1103C30.5686 0.686175 30.8894 1.05213 30.9353 1.46384V4.48299H31.0269C32.1269 1.55533 34.1892 0.182983 36.9848 0.182983C39.8263 0.182983 41.6137 1.55533 42.8969 4.48299C43.9968 1.55533 46.5175 0.182983 49.1756 0.182983C51.1005 0.182983 53.1629 0.960644 54.4461 2.74469C55.8668 4.71171 55.5918 7.54788 55.5918 10.0181V24.7022C55.5918 25.1596 55.1794 25.5256 54.7211 25.5256H50.1839C49.7256 25.4798 49.359 25.1139 49.359 24.7022V12.3511C49.359 11.3904 49.4506 8.92023 49.2215 8.00533C48.9007 6.45001 47.8466 5.99256 46.5633 5.99256C45.4634 5.99256 44.3176 6.72448 43.8593 7.91384C43.401 9.1032 43.4469 11.0245 43.4469 12.3511V24.7022C43.4469 25.1596 43.0344 25.5256 42.5761 25.5256H38.0389C37.5806 25.4798 37.214 25.1139 37.214 24.7022V12.3511C37.214 9.74363 37.6265 5.94682 34.4184 5.94682C31.1644 5.94682 31.3019 9.65214 31.3019 12.3511V24.7022C31.2561 25.2053 30.8436 25.5713 30.3853 25.5713Z" fill="#7D7E85"/>
<path fill-rule="evenodd" clip-rule="evenodd" d="M114.3 0.22876C121.037 0.22876 124.704 5.99259 124.704 13.3575C124.704 20.4479 120.671 26.0745 114.3 26.0745C107.701 26.0745 104.08 20.3107 104.08 13.083C104.08 5.85536 107.746 0.22876 114.3 0.22876ZM114.346 4.98621C111 4.98621 110.771 9.56068 110.771 12.3969C110.771 15.233 110.725 21.3171 114.3 21.3171C117.829 21.3171 117.967 16.4224 117.967 13.449C117.967 11.482 117.875 9.14898 117.279 7.27345C116.821 5.62664 115.813 4.98621 114.346 4.98621Z" fill="#7D7E85"/>
<path fill-rule="evenodd" clip-rule="evenodd" d="M133.457 25.5713H128.92C128.462 25.5256 128.095 25.1596 128.095 24.7479V1.46384C128.141 1.05213 128.507 0.686175 128.966 0.686175H133.182C133.595 0.686175 133.915 0.960644 134.007 1.3266V4.89469H134.099C135.382 1.69256 137.169 0.182983 140.286 0.182983C142.302 0.182983 144.319 0.914899 145.602 2.92767C146.794 4.8032 146.794 7.91384 146.794 10.1553V24.7936C146.748 25.2053 146.381 25.5256 145.923 25.5256H141.386C140.973 25.4798 140.607 25.2053 140.561 24.7936V12.2138C140.561 9.65214 140.836 5.94682 137.719 5.94682C136.619 5.94682 135.611 6.67873 135.107 7.82235C134.465 9.24044 134.374 10.6585 134.374 12.2138V24.7479C134.328 25.2053 133.915 25.5713 133.457 25.5713Z" fill="#7D7E85"/>
<path fill-rule="evenodd" clip-rule="evenodd" d="M72.9157 14.4553C72.9157 16.2394 72.9615 17.7032 72.0449 19.2585C71.3116 20.5394 70.1658 21.317 68.8826 21.317C67.1411 21.317 66.1328 19.9904 66.1328 18.0234C66.1328 14.1809 69.6159 13.4489 72.8698 13.4489V14.4553H72.9157ZM77.4987 25.5256C77.1779 25.8 76.7654 25.8 76.4446 25.617C74.9322 24.3819 74.6572 23.7873 73.8323 22.5979C71.3574 25.1138 69.5701 25.8915 66.362 25.8915C62.5581 25.8915 59.5791 23.5128 59.5791 18.8468C59.5791 15.1872 61.5956 12.6713 64.4371 11.4362C66.9119 10.3383 70.3492 10.1553 72.9615 9.88086V9.28618C72.9615 8.1883 73.0531 6.9532 72.4115 5.99256C71.8616 5.16915 70.8075 4.8032 69.845 4.8032C68.1035 4.8032 66.5911 5.67235 66.1786 7.54788C66.087 7.95958 65.812 8.37128 65.3995 8.37128L60.9998 7.91384C60.6332 7.82235 60.2207 7.54788 60.3124 6.9532C61.3206 1.60107 66.1328 0 70.4408 0C72.6407 0 75.528 0.594681 77.2695 2.24149C79.4694 4.3 79.286 7.04469 79.286 10.0638V17.1085C79.286 19.2128 80.1568 20.1734 80.9817 21.317C81.2567 21.7287 81.3484 22.2319 80.9817 22.5064C80.0651 23.2841 78.4153 24.7479 77.4987 25.5256Z" fill="#7D7E85"/>
<path fill-rule="evenodd" clip-rule="evenodd" d="M13.3824 14.4553C13.3824 16.2394 13.4282 17.7032 12.5116 19.2585C11.7783 20.5394 10.6326 21.317 9.34933 21.317C7.60779 21.317 6.59953 19.9904 6.59953 18.0234C6.59953 14.1809 10.0826 13.4489 13.3365 13.4489V14.4553H13.3824ZM17.9654 25.5256C17.6446 25.8 17.2321 25.8 16.9113 25.617C15.3989 24.3819 15.1239 23.7873 14.299 22.5979C11.8242 25.1138 10.0368 25.8915 6.82868 25.8915C2.97895 25.8915 0 23.5585 0 18.8468C0 15.1872 2.01652 12.6713 4.85799 11.4362C7.33281 10.3383 10.7701 10.1553 13.3824 9.88086V9.28618C13.3824 8.1883 13.474 6.9532 12.8324 5.99256C12.2825 5.16915 11.2284 4.8032 10.2659 4.8032C8.52439 4.8032 7.012 5.67235 6.59953 7.54788C6.50787 7.95958 6.23289 8.37128 5.82042 8.37128L1.42073 7.91384C1.05409 7.82235 0.641621 7.54788 0.733281 6.9532C1.78737 1.60107 6.59953 0 10.9076 0C13.1074 0 16.0405 0.594681 17.7821 2.24149C19.9819 4.3 19.7986 7.04469 19.7986 10.0638V17.1085C19.7986 19.2128 20.6694 20.1734 21.4943 21.317C21.7693 21.7287 21.8609 22.2319 21.4943 22.5064C20.5319 23.2841 18.882 24.7479 17.9654 25.5256Z" fill="#7D7E85"/>
</svg>
