<svg width="49" height="60" viewBox="0 0 49 60" fill="none" xmlns="http://www.w3.org/2000/svg">
<path fill-rule="evenodd" clip-rule="evenodd" d="M26.6825 5.16497C30.5806 0.0292356 35.9989 0 35.9989 0C35.9989 0 36.8078 4.83363 32.9292 9.4821C28.7972 14.4522 24.1 13.6336 24.1 13.6336C24.1 13.6336 23.2132 9.72573 26.6825 5.16497Z" fill="#7D7E85"/>
<path fill-rule="evenodd" clip-rule="evenodd" d="M24.5969 17.0249C26.6045 17.0249 30.3271 14.267 35.1705 14.267C43.5124 14.267 46.7868 20.2018 46.7868 20.2018C46.7868 20.2018 40.3744 23.4859 40.3744 31.438C40.3744 40.4134 48.3655 43.5124 48.3655 43.5124C48.3655 43.5124 42.7815 59.2412 35.229 59.2412C31.7597 59.2412 29.07 56.9023 25.4155 56.9023C21.6929 56.9023 17.9994 59.3289 15.5924 59.3289C8.70248 59.3191 0 44.4089 0 32.4126C0 20.6111 7.36739 14.4229 14.2767 14.4229C18.7693 14.4326 22.2581 17.0249 24.5969 17.0249Z" fill="#7D7E85"/>
</svg>
