<svg width="169" height="36" viewBox="0 0 169 36" fill="none" xmlns="http://www.w3.org/2000/svg">
<path fill-rule="evenodd" clip-rule="evenodd" d="M79.523 2.35257C81.9242 1.92883 84.2548 1.57572 86.656 1.15198C86.656 4.895 86.656 8.56741 86.656 12.2398C87.6447 12.0279 88.5628 11.7454 89.4809 11.6748C91.8114 11.3923 94.0714 11.3923 96.3313 12.0986C98.45 12.8048 99.6506 14.3585 100.004 16.4772C100.216 17.6778 100.286 18.8784 100.286 20.079C100.286 22.4802 100.286 24.8813 100.216 27.2825C100.074 29.6131 99.4387 31.6612 97.5319 33.2149C96.2607 34.2036 94.7776 34.698 93.2239 34.9805C90.1165 35.4748 86.9384 35.4042 83.831 34.9805C82.5598 34.8392 81.2886 34.6273 79.9468 34.4861C79.5936 34.4155 79.4524 34.2742 79.4524 33.9917C79.4524 33.7799 79.4524 33.568 79.4524 33.3561C79.4524 23.3276 79.4524 13.2285 79.4524 3.20005C79.4524 2.84693 79.4524 2.63506 79.523 2.35257ZM86.656 29.1894C88.0684 29.3306 89.4103 29.4012 90.7521 29.1894C92.1646 28.9069 92.9414 28.13 92.9414 26.6469C93.012 24.4576 93.0827 22.1977 93.012 20.0084C92.9414 18.4546 92.3058 17.819 90.8227 17.6072C89.4103 17.3953 88.139 17.819 86.8678 18.384C86.7266 18.4546 86.656 18.7371 86.656 18.8784C86.656 20.8558 86.656 22.9039 86.656 24.8813C86.656 26.2938 86.656 27.7063 86.656 29.1894Z" fill="#7D7E85"/>
<path fill-rule="evenodd" clip-rule="evenodd" d="M168.932 34.9098C168.438 34.9098 168.014 34.9098 167.59 34.9098C165.613 34.9098 163.635 34.9098 161.658 34.9098C161.234 34.9098 161.022 34.7686 160.74 34.4155C158.833 31.1668 156.855 27.9181 154.949 24.6695C154.878 24.5989 154.807 24.5282 154.737 24.3164C154.737 27.9181 154.737 31.3787 154.737 34.8392C154.525 34.8392 154.313 34.8392 154.172 34.8392C152.124 34.8392 150.146 34.8392 148.098 34.8392C147.604 34.8392 147.463 34.698 147.463 34.2742C147.463 32.0143 147.463 29.7543 147.463 27.4238C147.463 19.3021 147.463 11.1098 147.463 2.98818C147.463 2.28195 147.463 2.28195 148.169 2.21132C150.146 1.85821 152.124 1.57572 154.101 1.2226C154.242 1.2226 154.454 1.2226 154.666 1.15198C154.666 8.00242 154.666 14.8529 154.666 21.6327C154.737 21.6327 154.737 21.6327 154.807 21.7033C155.019 21.4208 155.16 21.1383 155.372 20.8558C157.209 17.9603 158.974 15.1354 160.81 12.2398C161.022 11.8867 161.305 11.6748 161.728 11.6748C163.847 11.6748 165.966 11.6748 168.084 11.6748C168.296 11.6748 168.579 11.6748 168.932 11.6748C168.791 11.8867 168.72 12.0986 168.649 12.2398C166.46 15.6297 164.341 19.0903 162.152 22.4802C161.94 22.8333 161.87 23.1158 162.152 23.5395C164.341 27.1413 166.531 30.8137 168.72 34.4861C168.791 34.6273 168.861 34.698 168.932 34.9098Z" fill="#7D7E85"/>
<path fill-rule="evenodd" clip-rule="evenodd" d="M76.5569 28.4831C76.5569 28.695 76.5569 28.8363 76.5569 28.9775C76.5569 30.6018 76.5569 32.2262 76.5569 33.8505C76.5569 34.2036 76.4863 34.3449 76.1332 34.4155C72.8845 35.1217 69.6358 35.3336 66.3165 35.1923C64.7628 35.1217 63.2091 34.7686 61.7967 34.133C59.1836 32.9324 57.7005 30.8137 57.2062 28.0594C56.9943 27.0707 56.9943 26.0113 56.9943 25.0226C56.9943 23.257 56.9237 21.4915 56.9943 19.7259C57.0649 17.7484 57.6299 15.9122 58.9717 14.3585C60.1017 13.0167 61.6554 12.3105 63.3504 11.9573C66.2459 11.3217 69.1415 11.3217 71.9664 12.3105C74.8619 13.2992 76.6275 15.4179 76.9806 18.384C77.2631 20.7146 77.1925 23.1158 77.3337 25.5876C76.9806 25.5876 76.7688 25.5876 76.5569 25.5876C72.6726 25.5876 68.7177 25.5876 64.8335 25.5876C64.3391 25.5876 64.1978 25.7288 64.2685 26.1526C64.3391 26.5057 64.2685 26.8588 64.3391 27.2119C64.551 28.4125 65.2572 29.1188 66.4578 29.1894C67.9409 29.26 69.424 29.3306 70.907 29.26C72.6726 29.1188 74.4382 28.8363 76.2038 28.6244C76.345 28.4831 76.4156 28.4831 76.5569 28.4831ZM67.164 20.5734C67.6584 20.5734 68.1527 20.5734 68.5765 20.5734C70.1302 20.5734 70.1302 20.5734 69.9889 19.0197C69.8477 17.9603 69.2827 17.1834 68.2234 17.0422C67.5171 16.901 66.7403 16.901 66.034 17.0422C65.1866 17.1834 64.551 17.7484 64.3391 18.5959C64.2685 19.0903 64.2685 19.6553 64.2685 20.1496C64.2685 20.5027 64.4097 20.5734 64.6922 20.5734C65.5397 20.5734 66.3165 20.5734 67.164 20.5734Z" fill="#7D7E85"/>
<path fill-rule="evenodd" clip-rule="evenodd" d="M145.768 23.3277C145.697 24.952 145.697 26.5057 145.485 28.0594C144.991 31.6612 142.872 33.9211 139.27 34.7686C136.375 35.4749 133.409 35.4749 130.513 34.5568C127.406 33.568 125.64 31.3787 125.075 28.2007C124.863 27.0001 124.863 25.7995 124.863 24.5989C124.863 22.8333 124.792 21.1384 124.934 19.3728C125.287 15.2766 127.547 12.7342 131.643 11.8867C134.468 11.3217 137.293 11.3217 140.047 12.2398C143.084 13.2286 144.849 15.4179 145.344 18.5253C145.697 20.079 145.626 21.7033 145.768 23.3277ZM138.423 23.3277C138.423 22.1977 138.423 21.0677 138.423 19.9378C138.423 18.8784 137.717 17.9603 136.657 17.6778C135.81 17.3953 134.962 17.3953 134.115 17.6072C132.914 17.8897 132.137 18.7372 132.137 19.8671C132.067 22.1977 132.067 24.4577 132.137 26.7882C132.137 27.9182 132.844 28.7657 133.903 29.0482C134.538 29.1894 135.245 29.26 135.88 29.1894C137.505 29.0482 138.423 28.0594 138.423 26.4351C138.423 25.3758 138.423 24.387 138.423 23.3277Z" fill="#7D7E85"/>
<path fill-rule="evenodd" clip-rule="evenodd" d="M123.098 23.5395C122.956 25.0226 122.956 26.7882 122.674 28.4832C122.038 32.0143 119.849 33.9918 116.459 34.7686C113.705 35.4042 110.95 35.4042 108.196 34.6274C104.947 33.7093 103.041 31.5199 102.405 28.2713C102.264 27.4944 102.193 26.647 102.193 25.7995C102.193 23.8926 102.123 21.9858 102.193 20.079C102.264 17.6072 103.041 15.4179 104.947 13.7229C106.219 12.5929 107.772 12.028 109.467 11.7455C112.222 11.3217 114.976 11.3217 117.66 12.3105C120.626 13.3698 122.321 15.5591 122.744 18.5959C122.956 20.1496 122.956 21.7033 123.098 23.5395ZM109.397 23.3277C109.397 24.387 109.326 25.3757 109.397 26.4351C109.397 26.5763 109.397 26.7176 109.397 26.9294C109.538 27.9888 110.032 28.7656 111.092 29.0481C111.798 29.1894 112.504 29.26 113.21 29.26C114.764 29.1188 115.682 28.13 115.682 26.7176C115.682 24.5283 115.682 22.3389 115.682 20.1496C115.682 19.0197 114.976 18.1016 113.846 17.7484C112.928 17.4659 112.08 17.4659 111.162 17.7484C110.103 18.0309 109.397 18.8784 109.397 20.0084C109.397 21.0677 109.397 22.1977 109.397 23.3277Z" fill="#7D7E85"/>
<path fill-rule="evenodd" clip-rule="evenodd" d="M28.745 33.7092C27.4032 34.133 26.0613 34.6273 24.7901 34.9804C23.2364 35.3336 21.6121 35.4042 19.9877 34.9804C17.4453 34.2742 16.1035 32.5086 15.6091 30.0368C15.3972 28.8362 15.3972 27.565 15.6091 26.2938C16.1035 24.0339 17.5159 22.6214 19.7759 22.1977C20.8352 21.9858 21.8946 21.9152 22.9539 21.8445C24.3664 21.7739 25.8495 21.8445 27.2619 21.8445C27.6857 21.8445 27.8269 21.7033 27.8269 21.2795C27.8269 20.9264 27.7563 20.5733 27.8269 20.2202C27.8269 18.384 26.9794 17.9603 25.4963 17.8896C23.1658 17.819 20.8352 17.819 18.5046 17.7484C18.2928 17.7484 18.0809 17.7484 17.7984 17.7484C17.869 17.1834 17.869 16.689 17.9397 16.1241C18.0809 14.7822 18.2222 13.4404 18.3634 12.0279C18.3634 11.8867 18.6459 11.6748 18.7165 11.6748C21.6827 11.6748 24.7195 11.6748 27.6857 11.8161C28.6744 11.8161 29.5925 12.0985 30.5106 12.381C33.053 13.0873 34.3948 14.9235 34.748 17.4659C34.8892 18.5252 34.9598 19.5846 34.9598 20.6439C34.9598 25.1638 34.9598 29.6837 34.9598 34.2036C34.9598 34.6979 34.8186 34.8392 34.3242 34.8392C32.6999 34.8392 31.0756 34.8392 29.5219 34.8392C29.0275 34.8392 28.8862 34.6273 28.8156 34.2036C28.8156 34.133 28.745 33.8505 28.745 33.7092ZM25.6376 26.7175C25.1432 26.7175 24.5782 26.7175 24.0839 26.7175C23.0245 26.7175 22.6008 27.2119 22.6008 28.2712C22.6008 29.4718 23.1658 30.0368 24.3664 30.1074C25.4963 30.1781 26.5557 29.8249 27.5444 29.3306C27.6857 29.26 27.7563 29.0481 27.8269 28.8362C27.8269 28.2712 27.8269 27.7769 27.8269 27.2119C27.8269 26.8588 27.6857 26.7882 27.4032 26.7882C26.7676 26.7175 26.2026 26.7175 25.6376 26.7175Z" fill="#7D7E85"/>
<path fill-rule="evenodd" clip-rule="evenodd" d="M16.0329 0.516357C16.0329 1.92882 16.0329 3.20004 16.0329 4.54188C16.0329 5.10686 16.0329 5.60122 16.0329 6.16621C16.0329 6.51932 15.9623 6.58995 15.6092 6.58995C14.6911 6.58995 13.7023 6.58995 12.7842 6.58995C12.4311 6.58995 12.1486 6.66057 11.7955 6.73119C11.1599 6.87244 10.8068 7.29618 10.8068 7.93179C10.7362 9.203 10.8068 10.4742 10.8068 11.7454C12.5017 11.7454 14.2673 11.7454 16.1035 11.7454C16.0329 12.7342 15.9623 13.5816 15.821 14.4997C15.7504 15.4178 15.6092 16.2653 15.5385 17.1834C15.5385 17.6072 15.3973 17.7484 14.9029 17.7484C13.4905 17.7484 12.1486 17.7484 10.7362 17.7484C10.7362 23.4689 10.7362 29.1187 10.7362 34.8392C8.33497 34.8392 6.00441 34.8392 3.60322 34.8392C3.5326 34.6273 3.5326 34.4155 3.5326 34.133C3.5326 28.9069 3.5326 23.6101 3.5326 18.384C3.5326 17.8896 3.46197 17.7484 2.89699 17.7484C1.97889 17.819 0.990165 17.7484 0.00144129 17.7484C0.00144129 17.5365 0.00144129 17.3247 0.00144129 17.1128C0.00144129 15.5591 0.00144129 14.0054 0.00144129 12.5223C0.00144129 11.6748 -0.0691818 11.7454 0.778296 11.7454C1.55515 11.7454 2.332 11.7454 3.10886 11.7454C3.46197 11.8161 3.5326 11.6748 3.5326 11.3217C3.5326 9.90923 3.5326 8.49677 3.60322 7.08431C3.67384 5.31873 4.16821 3.62377 5.51005 2.35256C6.49877 1.36383 7.76999 0.869473 9.11182 0.728227C11.3718 0.586981 13.7023 0.586981 16.0329 0.516357Z" fill="#7D7E85"/>
<path fill-rule="evenodd" clip-rule="evenodd" d="M55.0168 18.2427C53.8869 18.0309 52.8275 17.8896 51.7682 17.7484C49.932 17.4659 48.1664 17.3246 46.3302 17.6778C45.2002 17.8896 44.494 18.6665 44.494 19.7965C44.4234 22.1976 44.4234 24.5282 44.494 26.9294C44.494 28.0594 45.1296 28.8362 46.2596 28.9775C47.6014 29.1187 48.9432 29.1893 50.2145 29.1187C51.6975 29.0481 53.1806 28.695 54.6637 28.4831C54.7343 28.4831 54.8756 28.4831 55.0168 28.4831C55.0168 28.6243 55.0875 28.7656 55.0875 28.9068C55.0875 30.5312 55.0875 32.2261 55.0875 33.8505C55.0875 34.2036 55.0168 34.3448 54.6637 34.4154C51.98 34.9804 49.2964 35.4042 46.6127 35.1923C44.2115 35.051 41.9516 34.4861 40.0447 32.7911C38.491 31.3786 37.5729 29.5424 37.4317 27.4944C37.2904 24.9519 37.2198 22.4095 37.361 19.8671C37.5023 16.9715 38.7029 14.5703 41.2453 13.0166C42.6578 12.1692 44.2115 11.7454 45.9064 11.5336C48.8726 11.1804 51.7682 11.6042 54.6637 12.2398C54.805 12.3104 55.0875 12.4517 55.0875 12.5929C55.0875 14.4997 55.0168 16.3359 55.0168 18.2427Z" fill="#7D7E85"/>
</svg>
