<svg width="143" height="48" viewBox="0 0 143 48" fill="none" xmlns="http://www.w3.org/2000/svg">
<path d="M35.0086 17.15H18.2528V22.0875H30.1862C29.6104 28.9971 23.8525 31.9481 18.4256 31.9481C11.4728 31.9481 5.41251 26.478 5.41251 18.8199C5.41251 11.3489 11.1849 5.60528 18.44 5.60528C24.0252 5.60528 27.3216 9.17523 27.3216 9.17523L30.7764 5.60528C30.7764 5.60528 26.3428 0.667804 18.2672 0.667804C7.96042 0.653409 0 9.33357 0 18.7191C0 27.9175 7.48538 36.8711 18.5119 36.8711C28.2141 36.8711 35.3109 30.2207 35.3109 20.4033C35.3109 18.3448 35.0086 17.1356 35.0086 17.15Z" fill="#7D7E85"/>
<path d="M49.202 13.5657C42.3788 13.5657 37.4989 18.8918 37.4989 25.1104C37.4989 31.4154 42.2348 36.8567 49.2884 36.8567C55.6653 36.8567 60.8907 31.9768 60.8907 25.2544C60.8907 17.5387 54.8016 13.5657 49.202 13.5657ZM49.274 18.1433C52.628 18.1433 55.8093 20.8495 55.8093 25.2256C55.8093 29.5009 52.6424 32.2935 49.2596 32.2935C45.5457 32.2935 42.6091 29.3138 42.6091 25.1968C42.6091 21.1518 45.5025 18.1433 49.274 18.1433Z" fill="#7D7E85"/>
<path d="M74.5227 13.5657C67.6995 13.5657 62.8196 18.8918 62.8196 25.1104C62.8196 31.4154 67.5555 36.8567 74.6091 36.8567C80.986 36.8567 86.2114 31.9768 86.2114 25.2544C86.197 17.5387 80.1223 13.5657 74.5227 13.5657ZM74.5803 18.1433C77.9343 18.1433 81.1156 20.8495 81.1156 25.2256C81.1156 29.5009 77.9487 32.2935 74.5659 32.2935C70.852 32.2935 67.9154 29.3138 67.9154 25.1968C67.9154 21.1518 70.8088 18.1433 74.5803 18.1433Z" fill="#7D7E85"/>
<path d="M99.4836 13.5801C93.2218 13.5801 88.2987 19.0646 88.2987 25.2112C88.2987 32.2216 93.9991 36.8711 99.3684 36.8711C102.694 36.8711 104.45 35.5468 105.76 34.0353V36.3385C105.76 40.3547 103.327 42.7587 99.6419 42.7587C96.0864 42.7587 94.3014 40.11 93.6824 38.6129L89.2056 40.4843C90.789 43.8383 93.9847 47.3363 99.6851 47.3363C105.904 47.3363 110.654 43.4208 110.654 35.2013V13.9975H105.774V16.2575C104.263 14.6453 102.204 13.5801 99.4836 13.5801ZM99.9442 18.1433C103.01 18.1433 106.163 20.7632 106.163 25.24C106.163 29.7888 103.025 32.2935 99.8723 32.2935C96.5326 32.2935 93.4377 29.5873 93.4377 25.2832C93.4233 20.8207 96.6478 18.1433 99.9442 18.1433Z" fill="#7D7E85"/>
<path d="M131.915 13.5513C126.014 13.5513 121.062 18.2441 121.062 25.1825C121.062 32.5095 126.589 36.8712 132.491 36.8712C137.414 36.8712 140.437 34.1793 142.251 31.761L138.22 29.0835C137.17 30.7101 135.428 32.2936 132.52 32.2936C129.252 32.2936 127.741 30.4942 126.805 28.7668L142.424 22.2891L141.618 20.3889C140.092 16.6606 136.579 13.5513 131.915 13.5513ZM132.117 18.0426C134.247 18.0426 135.773 19.1798 136.421 20.5329L125.999 24.8946C125.553 21.5117 128.749 18.0426 132.117 18.0426Z" fill="#7D7E85"/>
<path d="M118.687 1.86252H113.907V36.1801H118.687V1.86252Z" fill="#7D7E85"/>
</svg>
