<svg width="91" height="37" viewBox="0 0 91 37" fill="none" xmlns="http://www.w3.org/2000/svg">
<path d="M91 2.6222H75.8495L76.8207 0H91V2.6222Z" fill="#7D7E85"/>
<path d="M50.5988 0H64.6809L65.555 2.6222H50.5988V0Z" fill="#7D7E85"/>
<path d="M39.4301 0C41.761 0.194237 43.8004 1.0683 45.4515 2.6222H19.9093V0H39.4301Z" fill="#7D7E85"/>
<path d="M17.6756 0H0V2.6222H17.6756V0Z" fill="#7D7E85"/>
<path d="M91 7.47809H74.1014L74.9755 4.8559H90.9029V7.47809H91Z" fill="#7D7E85"/>
<path d="M67.4003 7.47808H50.5988V4.953H66.4291L67.4003 7.47808Z" fill="#7D7E85"/>
<path d="M47.491 4.953C47.7824 5.82707 48.2679 6.5069 48.2679 7.5752H20.0065V4.953H47.491Z" fill="#7D7E85"/>
<path d="M17.6756 4.953H0V7.5752H17.6756V4.953Z" fill="#7D7E85"/>
<path d="M72.4504 12.4312L73.3245 9.80896H86.047V12.4312H72.4504Z" fill="#7D7E85"/>
<path d="M68.1772 9.80896L69.1484 12.4312H55.6489V9.80896H68.1772Z" fill="#7D7E85"/>
<path d="M48.462 9.80896C48.462 10.683 48.3649 11.6542 48.0736 12.4312H40.3041V9.80896H48.462Z" fill="#7D7E85"/>
<path d="M12.5282 9.80896H4.953V12.4312H12.5282V9.80896Z" fill="#7D7E85"/>
<path d="M32.7289 9.80896H25.1537V12.4312H32.7289V9.80896Z" fill="#7D7E85"/>
<path d="M63.127 15.2476V17.1899H55.6489V14.5677H69.9253L70.7994 16.9957L71.6735 14.5677H86.047V17.1899H78.5689V15.2476L77.8891 17.1899H63.8069L63.127 15.2476Z" fill="#7D7E85"/>
<path d="M25.1537 14.6649H47.0053C46.5198 15.5389 45.6457 16.6072 44.8687 17.2871H25.2508C25.1537 17.1899 25.1537 14.6649 25.1537 14.6649Z" fill="#7D7E85"/>
<path d="M12.5282 14.6649H4.953V17.2871H12.5282V14.6649Z" fill="#7D7E85"/>
<path d="M86.047 19.5208H78.5688V22.1429H86.047V19.5208Z" fill="#7D7E85"/>
<path d="M63.127 19.5208H55.6489V22.1429H63.127V19.5208Z" fill="#7D7E85"/>
<path d="M77.1121 19.5208L76.238 22.1429H65.6521L64.6809 19.5208H77.1121Z" fill="#7D7E85"/>
<path d="M25.1537 19.5208H44.7716C45.6457 20.2977 46.5197 21.1718 47.1025 22.1429H25.1537C25.1537 22.1429 25.1537 19.5208 25.1537 19.5208Z" fill="#7D7E85"/>
<path d="M12.5282 22.1429V19.5208H4.953V22.1429H12.5282Z" fill="#7D7E85"/>
<path d="M86.047 24.4739H78.5688V27.0961H86.047V24.4739Z" fill="#7D7E85"/>
<path d="M63.127 24.4739H55.6489V27.0961H63.127V24.4739Z" fill="#7D7E85"/>
<path d="M74.3927 27.0961C74.3927 27.0961 75.2668 24.4739 75.3639 24.4739H66.3319L67.3031 27.0961H74.3927Z" fill="#7D7E85"/>
<path d="M25.1537 26.9989V24.3767H32.826V26.9989H25.1537Z" fill="#7D7E85"/>
<path d="M48.1708 24.4739C48.5592 25.2508 48.5592 26.222 48.6564 27.0961H40.4984V24.4739H48.1708Z" fill="#7D7E85"/>
<path d="M12.5282 24.4739H4.953V27.0961H12.5282V24.4739Z" fill="#7D7E85"/>
<path d="M91 29.2326H78.5688V31.8548H91V29.2326Z" fill="#7D7E85"/>
<path d="M63.0299 29.2326H50.5988V31.8548H63.0299V29.2326Z" fill="#7D7E85"/>
<path d="M72.7417 31.8548H68.9541L67.9829 29.2326H73.6158L72.7417 31.8548Z" fill="#7D7E85"/>
<path d="M0 29.2326V31.8548H17.6756V29.2326C17.6756 29.2326 0 29.2326 0 29.2326Z" fill="#7D7E85"/>
<path d="M48.3651 29.2326C48.1708 30.1067 47.9766 31.175 47.3939 31.8548H47.1996H20.0065V29.2326H48.3651Z" fill="#7D7E85"/>
<path d="M70.9936 36.7107H70.7023L69.7311 34.1857H71.9648L70.9936 36.7107Z" fill="#7D7E85"/>
<path d="M91 34.1857H78.5688V36.8079H91V34.1857Z" fill="#7D7E85"/>
<path d="M20.0065 36.7107V34.0885C20.0065 34.0885 45.5486 34.0885 45.6457 34.0885C43.8976 35.7395 41.5668 36.6136 39.0417 36.7107H20.0065Z" fill="#7D7E85"/>
<path d="M63.0299 34.1857H50.5988V36.8079H63.0299V34.1857Z" fill="#7D7E85"/>
<path d="M17.6756 34.1857V36.8079H0V34.1857H17.6756Z" fill="#7D7E85"/>
</svg>
