<svg width="231" height="50" viewBox="0 0 231 50" fill="none" xmlns="http://www.w3.org/2000/svg">
<path d="M0 0H23.4664C23.4664 7.81826 23.4664 15.6365 23.4664 23.4548C15.6443 23.4548 7.82215 23.4548 0 23.4548V0Z" fill="#7D7E85"/>
<path d="M25.8625 0H49.329C49.329 7.81826 49.329 15.6365 49.329 23.4548C41.5068 23.4548 33.6847 23.4548 25.8625 23.4548C25.8625 15.6365 25.8625 7.81826 25.8625 0Z" fill="#7D7E85"/>
<path d="M211.607 8.93113C213.777 7.52243 216.568 7.39565 219.006 8.05774C219.02 9.50869 219.006 10.9596 219.02 12.4106C217.864 11.9035 216.497 11.5654 215.285 12.0725C214.313 12.4529 213.749 13.453 213.594 14.4391C213.411 15.6929 213.538 16.9748 213.495 18.2426C215.976 18.2426 218.442 18.2426 220.923 18.2426C220.937 16.6367 220.909 15.0308 220.951 13.4249C222.628 12.9459 224.305 12.4106 225.968 11.9035C225.983 14.0165 225.954 16.1296 225.983 18.2567C227.66 18.2285 229.337 18.2567 231 18.2426V22.356C229.323 22.2856 227.646 22.3419 225.954 22.3278C225.968 24.6944 225.954 27.061 225.954 29.4276C225.983 30.7377 225.884 32.0619 226.039 33.3579C226.138 34.1327 226.405 34.9779 227.138 35.3864C228.35 36.0626 229.887 35.7668 231 35.0202V39.1758C229.548 39.8097 227.928 39.9929 226.363 39.8802C224.869 39.7675 223.333 39.2322 222.36 38.0489C221.233 36.7106 220.951 34.9075 220.923 33.2029C220.909 29.5685 220.923 25.9341 220.923 22.2996C218.442 22.2996 215.976 22.2996 213.495 22.2996C213.495 28.0049 213.495 33.7101 213.495 39.4153C211.804 39.4153 210.113 39.4153 208.422 39.4153C208.422 33.7101 208.407 28.0049 208.422 22.3137C207.252 22.2856 206.068 22.3137 204.884 22.2996C204.884 20.9473 204.898 19.5949 204.884 18.2285C206.054 18.2003 207.224 18.2144 208.407 18.2144C208.492 16.4113 208.224 14.5659 208.76 12.805C209.211 11.2555 210.226 9.83269 211.607 8.93113Z" fill="#7D7E85"/>
<path d="M102.956 9.22688C103.985 9.07192 105.085 9.42409 105.761 10.227C106.55 11.1004 106.705 12.495 106.113 13.5234C105.465 14.6785 103.999 15.2138 102.731 14.9321C101.42 14.6926 100.321 13.467 100.377 12.1006C100.335 10.6778 101.547 9.39592 102.956 9.22688Z" fill="#7D7E85"/>
<path d="M64.057 9.86095C66.5234 9.86095 68.9758 9.86095 71.4422 9.86095C73.7395 15.6929 76.051 21.5109 78.3483 27.3429C78.9402 28.8079 79.4899 30.2729 80.0959 31.7239C83.0556 24.4409 86.0436 17.1721 88.9892 9.87503C91.357 9.83277 93.7248 9.86095 96.0926 9.86095C96.0926 19.7218 96.0926 29.5827 96.0926 39.4436C94.3872 39.4436 92.6818 39.4576 90.9764 39.4295C90.9905 32.1606 90.9764 24.8776 90.9905 17.5947C90.9905 17.2707 90.9765 16.9467 90.9624 16.6086C90.8637 16.7636 90.7791 16.9185 90.6946 17.0876C87.763 24.5396 84.7751 31.9634 81.8577 39.4154C80.6456 39.4576 79.4335 39.4154 78.2073 39.4436C75.1771 31.9916 72.1892 24.5255 69.1872 17.0735C69.1026 16.9185 69.0181 16.7636 68.9335 16.6227C68.8771 19.8063 68.9194 23.0041 68.9053 26.1877C68.9053 30.5969 68.9053 35.0202 68.9053 39.4295C67.2986 39.4295 65.6778 39.4295 64.0711 39.4295C64.057 29.5827 64.057 19.7218 64.057 9.86095Z" fill="#7D7E85"/>
<path d="M116.924 18.2143C119.376 17.51 122.011 17.5382 124.464 18.2425C124.971 18.3834 125.45 18.5806 125.916 18.8482C125.887 20.4682 125.916 22.0882 125.901 23.6942C124.267 22.4404 122.195 21.6516 120.109 21.9192C118.46 22.0742 116.881 22.9194 115.895 24.2576C114.626 25.9058 114.33 28.1034 114.556 30.1319C114.725 31.7096 115.373 33.3015 116.599 34.3439C117.882 35.4849 119.672 35.8794 121.349 35.7526C122.998 35.5554 124.562 34.8651 125.901 33.879C125.916 35.4145 125.901 36.9359 125.916 38.4714C123.844 39.711 121.349 40.0209 118.981 39.9082C116.557 39.7815 114.133 38.8658 112.371 37.1472C110.454 35.3018 109.426 32.6816 109.299 30.0474C109.172 27.3145 109.736 24.4549 111.3 22.1728C112.611 20.2429 114.669 18.8623 116.924 18.2143Z" fill="#7D7E85"/>
<path d="M172.355 17.9045C174.695 17.496 177.161 17.7918 179.374 18.637C179.374 20.1866 179.374 21.7503 179.374 23.2998C177.823 22.2292 175.921 21.6657 174.046 21.7221C173.102 21.7643 172.059 22.1588 171.622 23.0603C171.284 23.9478 171.509 25.117 172.355 25.6523C173.793 26.6103 175.512 27.0188 177.006 27.8922C178.176 28.5543 179.317 29.4136 179.909 30.6532C181.023 32.9776 180.558 36.0626 178.584 37.7953C176.71 39.5421 174.004 40.0351 171.523 39.9365C169.762 39.8238 167.986 39.4716 166.365 38.7532C166.379 37.1191 166.351 35.485 166.379 33.851C167.746 34.837 169.311 35.5555 170.988 35.8372C172.144 36.0203 173.412 36.0344 174.497 35.5132C175.526 35.0061 175.723 33.527 175.103 32.6254C174.525 31.9351 173.68 31.5548 172.89 31.1744C171.397 30.4983 169.818 29.9348 168.507 28.9346C167.577 28.2162 166.886 27.2019 166.605 26.0609C166.196 24.3704 166.323 22.4687 167.309 21.0036C168.423 19.285 170.368 18.2567 172.355 17.9045Z" fill="#7D7E85"/>
<path d="M137.247 18.5666C138.642 17.7214 140.432 17.651 141.954 18.1722C141.94 19.8626 141.954 21.553 141.954 23.2435C140.954 22.5955 139.699 22.3137 138.529 22.4405C137.092 22.6096 135.95 23.7084 135.358 24.9762C134.71 26.3144 134.597 27.8358 134.64 29.3009C134.64 32.6817 134.64 36.0626 134.64 39.4435C132.976 39.4435 131.299 39.4435 129.636 39.4435C129.636 32.3859 129.636 25.3143 129.636 18.2567C131.299 18.2285 132.976 18.2426 134.64 18.2567C134.625 19.4682 134.64 20.6797 134.64 21.8911C135.175 20.567 135.978 19.285 137.247 18.5666Z" fill="#7D7E85"/>
<path d="M100.842 18.2426C102.519 18.2426 104.211 18.2144 105.888 18.2567C105.874 25.3143 105.888 32.3859 105.874 39.4435C104.197 39.4435 102.519 39.4435 100.842 39.4435C100.842 32.3718 100.842 25.3142 100.842 18.2426Z" fill="#7D7E85"/>
<path d="M162.997 23.1871C162.123 21.229 160.53 19.5949 158.557 18.7074C156.302 17.6791 153.723 17.5382 151.299 17.8481C148.733 18.1721 146.253 19.3695 144.632 21.4121C143.152 23.2293 142.433 25.5678 142.293 27.8921C142.095 30.625 142.546 33.5269 144.153 35.809C145.52 37.7812 147.676 39.1335 150.016 39.6266C151.961 40.0351 154.005 40.0351 155.964 39.6266C158.247 39.1617 160.375 37.8939 161.785 36.0344C163.166 34.2735 163.856 32.0619 164.011 29.8643C164.166 27.6104 163.941 25.2719 162.997 23.1871ZM158.106 32.9212C157.627 34.0059 156.739 34.9356 155.611 35.3723C154.301 35.8794 152.821 35.9076 151.468 35.5554C150.087 35.1892 148.917 34.2031 148.282 32.9353C147.465 31.3012 147.338 29.4135 147.507 27.6245C147.662 26.0045 148.226 24.3281 149.466 23.2012C150.368 22.3559 151.595 21.9474 152.807 21.877C154.329 21.7784 155.95 22.2151 157.049 23.3139C158.219 24.469 158.67 26.1312 158.797 27.7372C158.909 29.4839 158.839 31.3012 158.106 32.9212Z" fill="#7D7E85"/>
<path d="M203.643 23.807C202.868 21.708 201.304 19.8767 199.288 18.8766C196.977 17.7073 194.285 17.5383 191.762 17.8482C189.719 18.1159 187.717 18.8906 186.153 20.2571C184.25 21.8912 183.137 24.3 182.798 26.7653C182.488 29.2305 182.587 31.8225 183.602 34.1327C184.56 36.4007 186.463 38.232 188.76 39.1336C191.015 40.0211 193.524 40.1197 195.906 39.7394C198.33 39.3449 200.641 38.063 202.15 36.0908C203.756 34.0623 204.447 31.428 204.447 28.8642C204.475 27.1597 204.264 25.4129 203.643 23.807ZM199.063 30.9913C198.866 32.1042 198.485 33.2171 197.752 34.1046C197.019 34.992 195.92 35.5274 194.792 35.6964C193.58 35.8795 192.298 35.795 191.156 35.302C189.93 34.7807 188.986 33.7242 188.478 32.4987C187.872 31.0477 187.76 29.4277 187.872 27.8781C187.985 26.3708 188.408 24.8213 189.409 23.652C190.311 22.5533 191.706 21.9616 193.115 21.8771C194.553 21.7785 196.075 22.1025 197.174 23.0745C198.189 23.9197 198.753 25.1734 199.007 26.4553C199.317 27.9486 199.317 29.4981 199.063 30.9913Z" fill="#7D7E85"/>
<path d="M0 25.8495C7.82215 25.8495 15.6443 25.8495 23.4664 25.8495C23.4664 33.6678 23.4664 41.4861 23.4664 49.3043H0V25.8495Z" fill="#7D7E85"/>
<path d="M25.8625 25.8495C33.6847 25.8495 41.5068 25.8495 49.329 25.8495C49.329 33.6678 49.329 41.4861 49.329 49.3043H25.8625C25.8625 41.4861 25.8625 33.6678 25.8625 25.8495Z" fill="#7D7E85"/>
</svg>
