<svg width="186" height="61" viewBox="0 0 186 61" fill="none" xmlns="http://www.w3.org/2000/svg">
<path d="M30.0253 60.2448C46.6078 60.2448 60.0505 46.7585 60.0505 30.1224C60.0505 13.4863 46.6078 0 30.0253 0C13.4428 0 0 13.4863 0 30.1224C0 46.7585 13.4428 60.2448 30.0253 60.2448Z" fill="#7D7E85"/>
<path d="M50.0495 30.1224C49.96 27.6965 47.9299 25.8021 45.5043 25.8845C44.4296 25.9219 43.4071 26.3637 42.6309 27.1049C39.2127 24.7688 35.1974 23.4885 31.0701 23.3986L33.0181 14.0017L39.4441 15.357C39.6232 17.0117 41.1009 18.2097 42.7503 18.03C44.3997 17.8503 45.5939 16.3678 45.4148 14.7131C45.2357 13.0583 43.7579 11.8603 42.1085 12.04C41.1606 12.1373 40.3098 12.6914 39.8396 13.515L32.4807 12.04C31.9806 11.9277 31.4806 12.2422 31.3686 12.7513C31.3686 12.7588 31.3686 12.7588 31.3686 12.7663L29.152 23.2189C24.9725 23.2863 20.905 24.5742 17.4419 26.9252C15.6806 25.263 12.9042 25.3454 11.2473 27.1199C9.59044 28.887 9.67254 31.6723 11.4414 33.3346C11.7847 33.6566 12.1802 33.9336 12.6206 34.1283C12.5907 34.57 12.5907 35.0118 12.6206 35.4536C12.6206 42.1998 20.4572 47.6882 30.1223 47.6882C39.7874 47.6882 47.6239 42.2073 47.6239 35.4536C47.6538 35.0118 47.6538 34.57 47.6239 34.1283C49.1315 33.372 50.0794 31.8146 50.0495 30.1224ZM20.0243 33.1399C20.0243 31.4777 21.3752 30.1224 23.032 30.1224C24.6889 30.1224 26.0398 31.4777 26.0398 33.1399C26.0398 34.8021 24.6889 36.1574 23.032 36.1574C21.3677 36.1424 20.0243 34.8021 20.0243 33.1399ZM37.4662 41.4211C35.3317 43.031 32.7195 43.8546 30.0476 43.7423C27.3757 43.8546 24.7635 43.031 22.629 41.4211C22.3454 41.0767 22.3976 40.5601 22.741 40.2755C23.0395 40.0285 23.4649 40.0285 23.7709 40.2755C25.5771 41.6008 27.7788 42.2747 30.0178 42.1699C32.2568 42.2897 34.466 41.6458 36.2945 40.3354C36.6229 40.0135 37.1602 40.021 37.4812 40.3504C37.8021 40.6799 37.7946 41.219 37.4662 41.5409V41.4211ZM36.9289 36.2622C35.272 36.2622 33.9211 34.907 33.9211 33.2447C33.9211 31.5825 35.272 30.2273 36.9289 30.2273C38.5858 30.2273 39.9366 31.5825 39.9366 33.2447C40.0038 34.907 38.7126 36.3071 37.0558 36.3745C37.0035 36.3745 36.9587 36.3745 36.9065 36.3745L36.9289 36.2622Z" fill="white"/>
<path d="M167.516 20.9352C169.775 20.9352 171.606 19.0981 171.606 16.832C171.606 14.5659 169.775 12.7289 167.516 12.7289C165.257 12.7289 163.426 14.5659 163.426 16.832C163.426 19.0981 165.257 20.9352 167.516 20.9352Z" fill="#7D7E85"/>
<path d="M109.555 34.2929C111.137 34.4052 112.511 33.2072 112.63 31.6124C112.637 31.5225 112.637 31.4177 112.637 31.3204C112.615 30.7663 112.548 30.2047 112.436 29.6581C111.466 24.4618 107.04 20.6356 101.778 20.426C95.785 20.426 90.7771 25.9518 90.7771 32.7355C90.7771 39.5192 95.7029 45.0525 101.771 45.0525C104.987 45.1798 108.107 43.877 110.271 41.4885C111.16 40.5151 111.085 39.0101 110.115 38.1191C110.04 38.0517 109.973 37.9918 109.898 37.9394C108.928 37.3329 107.667 37.4602 106.846 38.2538C105.495 39.6016 103.681 40.3728 101.771 40.4327C98.4719 40.1707 95.8298 37.58 95.5014 34.263H109.465L109.555 34.2929ZM101.748 25.0608C104.652 25.2555 107.092 27.337 107.741 30.1898H95.7701C96.412 27.3295 98.8376 25.248 101.748 25.0608Z" fill="#7D7E85"/>
<path d="M91.016 22.8145C91.016 21.6614 90.1652 20.6805 89.0233 20.5383C85.9409 20.0216 82.8063 21.1672 80.7837 23.5633V23.2638C80.7837 21.9834 79.7538 20.9501 78.4775 20.9501C77.2013 20.9501 76.1713 21.9834 76.1713 23.2638V42.2072C76.1415 43.4502 77.0893 44.5059 78.3283 44.6107C79.5896 44.7006 80.6942 43.7422 80.7763 42.4768C80.7837 42.3869 80.7837 42.2971 80.7763 42.2072V32.4884C80.5747 28.6099 83.5377 25.3079 87.4037 25.0982C87.7471 25.0757 88.0978 25.0832 88.4412 25.1207H88.9039C90.098 25.0158 91.016 24.02 91.016 22.8145Z" fill="#7D7E85"/>
<path d="M169.815 25.3004C169.815 24.0201 168.785 22.9868 167.508 22.9868C166.232 22.9868 165.202 24.0201 165.202 25.3004V42.1998C165.202 43.4802 166.232 44.5135 167.508 44.5135C168.785 44.5135 169.815 43.4802 169.815 42.1998V25.3004Z" fill="#7D7E85"/>
<path d="M135.781 12.4593C135.781 11.1864 134.751 10.1531 133.483 10.1531C132.214 10.1531 131.184 11.1864 131.184 12.4593V22.7921C129.632 21.2197 127.497 20.3661 125.295 20.426C119.302 20.426 114.294 25.9518 114.294 32.7355C114.294 39.5193 119.228 45.0526 125.295 45.0526C127.534 45.12 129.699 44.2589 131.288 42.664C131.647 43.8845 132.923 44.5808 134.139 44.2214C135.057 43.9519 135.714 43.1432 135.774 42.1773L135.781 12.4593ZM125.28 40.4926C121.75 40.4926 118.877 37.0484 118.877 32.788C118.877 28.5275 121.728 25.0833 125.28 25.0833C128.833 25.0833 131.684 28.5275 131.684 32.788C131.684 37.0484 128.833 40.4552 125.295 40.4552L125.28 40.4926Z" fill="#7D7E85"/>
<path d="M159.829 12.4593C159.829 11.1864 158.799 10.1531 157.53 10.1531C156.261 10.1531 155.231 11.1864 155.231 12.4593V22.7921C153.679 21.2197 151.544 20.3661 149.342 20.426C143.349 20.426 138.341 25.9518 138.341 32.7355C138.341 39.5193 143.275 45.0526 149.342 45.0526C151.581 45.12 153.746 44.2589 155.336 42.664C155.694 43.8845 156.97 44.5808 158.187 44.2214C159.105 43.9519 159.761 43.1432 159.821 42.1773L159.829 12.4593ZM149.335 40.4926C145.805 40.4926 142.931 37.0484 142.931 32.788C142.931 28.5275 145.782 25.0833 149.335 25.0833C152.888 25.0833 155.739 28.5275 155.739 32.788C155.739 37.0484 152.888 40.4552 149.35 40.4552L149.335 40.4926Z" fill="#7D7E85"/>
<path d="M181.763 42.1923V25.0608H183.756C184.861 25.1281 185.801 24.2821 185.868 23.1814C185.868 23.1439 185.876 23.099 185.876 23.0541C185.973 21.9534 185.159 20.98 184.07 20.8827C184.01 20.8752 183.943 20.8752 183.883 20.8752H181.771V17.693C181.786 16.4576 180.845 15.4168 179.614 15.3045C178.353 15.2146 177.255 16.173 177.166 17.4384C177.158 17.4908 177.158 17.5507 177.158 17.6032V20.9276H175.158C174.054 20.8602 173.113 21.7063 173.046 22.807C173.046 22.8444 173.039 22.8894 173.039 22.9343C172.942 24.035 173.755 25.0083 174.845 25.1057C174.904 25.1132 174.972 25.1132 175.031 25.1132H177.024V42.1998C177.024 43.4726 178.054 44.5059 179.323 44.5059C180.592 44.5883 181.674 43.6149 181.756 42.342C181.763 42.2971 181.763 42.2447 181.763 42.1923Z" fill="#7D7E85"/>
</svg>
