<svg width="203" height="61" viewBox="0 0 203 61" fill="none" xmlns="http://www.w3.org/2000/svg">
<path d="M198.276 24.7526H199.875C200.311 24.7526 200.674 24.8617 200.893 25.1161C201.074 25.2978 201.183 25.5886 201.183 25.9157C201.183 26.4973 200.893 26.8244 200.42 27.0062L201.292 28.2783H200.384L199.62 27.1516H199.039V28.2783H198.276V24.7526ZM199.838 26.461C200.202 26.461 200.42 26.2429 200.42 25.9521C200.42 25.625 200.202 25.4432 199.802 25.4432H199.039V26.461H199.838Z" fill="#7D7E85"/>
<path d="M199.657 29.9139C197.839 29.9139 196.349 28.4236 196.349 26.6063C196.349 24.7889 197.839 23.2986 199.657 23.2986C201.474 23.2986 202.964 24.7889 202.964 26.6063C202.964 28.4236 201.51 29.9139 199.657 29.9139ZM199.657 23.6258C198.021 23.6258 196.713 24.9343 196.713 26.5699C196.713 28.2056 198.057 29.5141 199.657 29.5141C201.256 29.5141 202.601 28.1692 202.601 26.5699C202.601 24.9706 201.292 23.6258 199.657 23.6258Z" fill="#7D7E85"/>
<path d="M30.4228 60.8457C47.2249 60.8457 60.8457 47.2249 60.8457 30.4228C60.8457 13.6208 47.2249 0 30.4228 0C13.6208 0 0 13.6208 0 30.4228C0 47.2249 13.6208 60.8457 30.4228 60.8457Z" fill="#7D7E85"/>
<path d="M80.8005 16.2473C81.7455 16.2473 85.7801 15.9565 90.7233 19.664C90.9414 19.8457 90.9778 20.1365 90.8324 20.3909L88.4698 23.6985C88.288 23.953 87.9609 23.9893 87.7428 23.8076C87.3067 23.4804 86.5797 22.9352 85.671 22.4991C84.2535 21.7721 82.3998 21.1905 80.8005 21.1905C79.2012 21.1905 76.6205 21.6994 76.6205 24.2437C76.6205 26.2792 78.4379 27.0425 83.999 28.4237C87.6338 29.3687 91.8501 31.1134 91.8501 36.6382C91.8501 41.7269 87.5974 44.9618 81.7455 44.9618C78.2198 44.9618 73.3856 43.617 70.3324 40.5274C70.1507 40.3457 70.1506 40.0549 70.296 39.8368L72.9494 36.7109C73.1311 36.4928 73.4946 36.4565 73.6764 36.6746C74.6941 37.6196 77.6382 40.0185 81.7092 40.0185C86.507 40.0185 86.3253 37.1108 86.3253 36.6746C86.3253 35.7659 85.671 34.4574 83.2721 33.8031C80.9095 33.1489 74.9485 32.0221 72.695 29.4051C71.3138 27.7694 71.132 25.9884 71.132 24.6072C71.132 21.554 73.1311 16.2473 80.8005 16.2473Z" fill="#7D7E85"/>
<path d="M105.626 22.8989C101.337 22.8989 99.0105 26.0612 99.0105 26.0612V23.8803C99.0105 23.5895 98.7924 23.3714 98.5016 23.3714H94.1036C93.8128 23.3714 93.5947 23.5895 93.5947 23.8803V50.3413C93.5947 50.6321 93.8128 50.8501 94.1036 50.8501H98.5016C98.7924 50.8501 99.0105 50.6321 99.0105 50.3413V42.0904C99.0105 42.0904 101.155 44.9618 105.844 44.9618C109.551 44.9618 115.512 41.9814 115.512 34.0213C115.549 26.0248 109.915 22.8989 105.626 22.8989ZM104.499 40.2367C101.518 40.2367 98.9742 37.6197 98.9742 33.9122C98.9742 31.6587 100.392 27.6604 104.463 27.6604C108.534 27.6604 110.06 30.9317 110.06 33.9122C110.024 36.8927 108.388 40.2367 104.499 40.2367Z" fill="#7D7E85"/>
<path d="M128.27 22.8989C121.328 22.8989 117.039 28.5691 117.039 33.9486C117.039 39.8369 121.619 44.9982 128.307 44.9982C135.031 44.9982 139.574 39.6915 139.574 33.9486C139.574 28.2057 135.213 22.8989 128.27 22.8989ZM128.307 40.2367C125.471 40.2367 122.382 37.8741 122.382 33.9486C122.382 30.023 125.181 27.6968 128.307 27.6968C130.705 27.6968 134.122 29.6959 134.122 33.9486C134.122 38.2012 131.142 40.2367 128.307 40.2367Z" fill="#7D7E85"/>
<path d="M153.459 27.5514V23.8076C153.459 23.5168 153.241 23.2987 152.95 23.2987H147.934V18.2101C147.934 17.9193 147.716 17.7012 147.425 17.7012H143.1C142.809 17.7012 142.591 17.9193 142.591 18.2101V23.2987H140.483C140.192 23.2987 139.974 23.5168 139.974 23.8076V27.5514C139.974 27.8422 140.192 28.0603 140.483 28.0603H142.591C142.591 28.0603 142.591 36.3111 142.591 38.6737C142.591 41.0363 143.682 44.8528 148.443 44.8528C150.624 44.8528 152.514 44.0895 153.205 43.7624C153.386 43.6897 153.495 43.5079 153.495 43.2899V39.6188C153.495 39.2916 153.132 39.0736 152.841 39.2916C152.332 39.6188 151.533 39.9822 150.333 39.9822C148.08 39.9822 147.934 38.4557 147.934 37.3652C147.934 36.2748 147.934 28.0603 147.934 28.0603H152.95C153.241 28.0603 153.459 27.8422 153.459 27.5514Z" fill="#7D7E85"/>
<path d="M158.402 20.718C160.249 20.718 161.746 19.2209 161.746 17.3741C161.746 15.5272 160.249 14.0301 158.402 14.0301C156.555 14.0301 155.058 15.5272 155.058 17.3741C155.058 19.2209 156.555 20.718 158.402 20.718Z" fill="#7D7E85"/>
<path d="M160.547 44.5256H156.222C155.931 44.5256 155.713 44.3076 155.713 44.0168V23.8076C155.713 23.5168 155.931 23.2987 156.222 23.2987H160.547C160.838 23.2987 161.056 23.5168 161.056 23.8076V44.0168C161.056 44.2712 160.838 44.5256 160.547 44.5256Z" fill="#7D7E85"/>
<path d="M165.853 28.0602H163.782C163.491 28.0602 163.273 27.8421 163.273 27.5513V23.8076C163.273 23.5168 163.491 23.2987 163.782 23.2987H165.853C165.853 23.2987 165.853 22.8262 165.853 21.9175C165.853 21.0088 165.999 15.3022 172.432 15.3022C175.631 15.3022 176.649 16.0292 176.649 16.0292C176.649 16.0292 176.649 19.5186 176.649 19.882C176.649 20.2455 176.503 20.5726 176.103 20.4272C175.704 20.2819 174.504 19.9547 173.523 19.9547C172.541 19.9547 171.197 20.5363 171.197 22.2446C171.197 22.8625 171.197 23.2987 171.197 23.2987H179.084C179.302 23.2987 179.484 23.4441 179.556 23.6258L185.045 37.874L189.988 23.6985C190.061 23.4804 190.243 23.335 190.461 23.335H195.295C195.513 23.335 195.695 23.5531 195.586 23.7712C194.459 26.7154 188.025 43.3625 187.189 45.4707C186.281 47.7969 184.754 50.9591 180.32 50.9591C177.739 50.9591 176.103 50.0868 175.413 49.6506C175.195 49.5052 175.122 49.2508 175.231 48.9964L176.794 45.616C176.867 45.4707 177.049 45.4343 177.158 45.507C177.594 45.7978 178.648 46.3067 179.847 46.3067C181.592 46.3067 182.392 44.2348 182.392 44.2348L175.631 28.0966H171.197V44.0531C171.197 44.3439 170.978 44.562 170.688 44.562H166.326C166.035 44.562 165.817 44.3439 165.817 44.0531L165.853 28.0602Z" fill="#7D7E85"/>
<path d="M42.6354 44.9254C42.272 44.9254 41.9448 44.8163 41.6177 44.6346C29.623 37.4378 15.4112 41.5814 15.2658 41.6541C14.2117 41.9812 13.0849 41.3633 12.7578 40.3093C12.4307 39.2552 13.0486 38.1284 14.1027 37.8013C14.7569 37.6195 30.1319 33.0398 43.6532 41.1816C44.5982 41.7632 44.889 42.9626 44.3438 43.9077C43.9803 44.5619 43.326 44.9254 42.6354 44.9254Z" fill="white"/>
<path d="M46.0885 36.711C45.6887 36.711 45.2889 36.6019 44.9254 36.3838C29.8776 27.7331 14.6843 32.7491 14.5389 32.8218C13.3031 33.258 11.9582 32.6037 11.5221 31.3679C11.0859 30.1321 11.7402 28.7872 12.976 28.351C13.6666 28.0966 30.3501 22.5718 47.2517 32.2766C48.3784 32.9308 48.7783 34.3847 48.124 35.5115C47.7242 36.2748 46.9245 36.711 46.0885 36.711Z" fill="white"/>
<path d="M49.8323 27.406C49.3598 27.406 48.9236 27.297 48.4874 27.0789C31.1497 17.9556 13.3031 23.4078 13.1213 23.4805C11.5948 23.953 9.95912 23.117 9.4866 21.5904C9.01408 20.0638 9.85008 18.4282 11.3767 17.9556C12.2127 17.7012 31.6949 11.7402 51.1772 21.9539C52.5947 22.7172 53.1399 24.4618 52.413 25.8794C51.9041 26.8244 50.8864 27.406 49.8323 27.406Z" fill="white"/>
</svg>
