<?xml version="1.0" encoding="UTF-8"?>
<svg width="89px" height="32px" viewBox="0 0 89 32" version="1.1" xmlns="http://www.w3.org/2000/svg" xmlns:xlink="http://www.w3.org/1999/xlink">
    <!-- Generator: Sketch 56.3 (81716) - https://sketch.com -->
    <title>Uber</title>
    <desc>Created with Sketch.</desc>
    <g id="Cutting-Assets" stroke="none" stroke-width="1" fill="none" fill-rule="evenodd">
        <g id="Social-Proof-Logos" transform="translate(-691.000000, -235.000000)">
            <g id="Uber" transform="translate(679.000000, 215.000000)">
                <rect id="Rectangle" x="0" y="0" width="113" height="72"></rect>
                <g transform="translate(12.000000, 20.000000)" fill="#7D7E85" fill-rule="nonzero">
                    <path d="M5.07540757,22.4567351 C5.44678054,23.4528 5.96098595,24.3052973 6.62754595,25.0140541 C7.28458378,25.7228108 8.06541838,26.2592 8.97003243,26.6327351 C9.87468108,27.0062703 10.8554378,27.1978378 11.9219892,27.1978378 C12.9504,27.1978378 13.9216432,27.0062703 14.8262919,26.6135351 C15.7309405,26.2208865 16.5212541,25.6748973 17.1973189,24.9661405 C17.8734703,24.2573838 18.3971459,23.4144865 18.7685189,22.4375351 C19.1398919,21.4605838 19.3303351,20.3591784 19.3303351,19.1523459 L19.3303351,0.446579027 L23.8534919,0.446579027 L23.8534919,30.7512216 L19.3779892,30.7512216 L19.3779892,27.9353081 C18.3781189,28.9984865 17.1878054,29.8221838 15.8261622,30.4064 C14.4644324,30.9811027 12.9884541,31.2684108 11.4172541,31.2684108 C9.808,31.2684108 8.31300324,30.9907027 6.92274162,30.4256 C5.53248,29.8604973 4.32313946,29.0655135 3.30425081,28.0215351 C2.28536216,26.9774703 1.46643892,25.7324108 0.885578378,24.2764973 C0.295192216,22.8206703 0,21.1923892 0,19.4013405 L0,0.446579027 L4.52311351,0.446579027 L4.52311351,19.1427459 C4.52311351,20.3591784 4.70403459,21.4605838 5.07540757,22.4567351 Z" id="Path"></path>
                    <path d="M31.6332973,0.446579027 L31.6332973,11.4803892 C32.6330811,10.4747243 33.7948541,9.67014054 35.1184432,9.07632432 C36.4420324,8.48248216 37.8703568,8.18556541 39.4225297,8.18556541 C41.0317838,8.18556541 42.5363027,8.49205622 43.9456,9.09543784 C45.3549838,9.69885405 46.5738378,10.5225514 47.6022486,11.5666162 C48.6306595,12.6105946 49.4495135,13.8365405 50.0589838,15.2445405 C50.6588541,16.6620541 50.9636324,18.1561946 50.9636324,19.7461622 C50.9636324,21.3361297 50.6588541,22.8302703 50.0589838,24.2286703 C49.4591135,25.6269838 48.640173,26.8434162 47.6022486,27.8873946 C46.5738378,28.9218595 45.3453838,29.7455568 43.9456,30.3584865 C42.5363027,30.9619027 41.0317838,31.2684108 39.4225297,31.2684108 C37.8703568,31.2684108 36.4325189,30.9715027 35.0994162,30.3776865 C33.766227,29.7838703 32.595027,28.9888865 31.5951568,27.9736216 L31.5951568,30.7416216 L27.2910703,30.7416216 L27.2910703,0.446579027 L31.6332973,0.446579027 Z M32.1284324,22.7344432 C32.5188324,23.6539676 33.0521081,24.4680649 33.7376865,25.1577081 C34.4232649,25.8472649 35.2326919,26.4028541 36.1468541,26.8051027 C37.0610162,27.2073514 38.0512865,27.4085189 39.1178378,27.4085189 C40.1462486,27.4085189 41.1270054,27.2073514 42.0411676,26.8051027 C42.9553297,26.4028541 43.7551568,25.8568649 44.4313081,25.1577081 C45.107373,24.4680649 45.6406486,23.6539676 46.0405622,22.7344432 C46.4404757,21.8150054 46.6404324,20.8188541 46.6404324,19.7461622 C46.6404324,18.6733838 46.4404757,17.6773189 46.0405622,16.7386811 C45.6406486,15.8000432 45.0978595,14.9859459 44.4313081,14.2963027 C43.7551568,13.6066595 42.9648432,13.0607568 42.0411676,12.6776216 C41.1174919,12.2944865 40.1462486,12.0934054 39.1178378,12.0934054 C38.089427,12.0934054 37.1085838,12.2848865 36.1944216,12.6776216 C35.2803459,13.0703568 34.4709189,13.6066595 33.7853405,14.2963027 C33.0996757,14.9859459 32.547373,15.8000432 32.1474595,16.7386811 C31.7475459,17.6773189 31.5475892,18.6829838 31.5475892,19.7461622 C31.5475892,20.8188541 31.7380324,21.8150054 32.1284324,22.7344432 Z" id="Shape"></path>
                    <path d="M53.4012541,15.2924541 C53.9726703,13.9036541 54.7629838,12.6872216 55.7723676,11.6336432 C56.7817514,10.5800649 57.9624649,9.74676757 59.3432216,9.14335135 C60.7239784,8.53996973 62.2094703,8.23347892 63.8187243,8.23347892 C65.3994378,8.23347892 66.8563892,8.52081297 68.2085189,9.09552432 C69.5607351,9.67014054 70.7224216,10.4747243 71.6936649,11.4995892 C72.6649946,12.5243676 73.4267676,13.7408 73.9790703,15.1392 C74.5218595,16.5376 74.7980108,18.0604541 74.7980108,19.7078486 L74.7980108,21.1349622 L56.9340541,21.1349622 C57.0769297,22.0256865 57.3625946,22.8589838 57.7910486,23.6252541 C58.2195892,24.3915243 58.7623784,25.0523676 59.4003892,25.6174703 C60.0479135,26.182573 60.7810595,26.6231351 61.5904865,26.9392432 C62.409427,27.2552649 63.2759351,27.4181189 64.1900973,27.4181189 C66.7992216,27.4181189 68.9132108,26.335827 70.5129514,24.1711568 L73.6552649,26.5081946 C72.569773,27.9832216 71.2175568,29.1325405 69.6083027,29.9754378 C67.9990486,30.8087351 66.1897514,31.2300973 64.1900973,31.2300973 C62.5522162,31.2300973 61.0286703,30.9427892 59.6098595,30.3680865 C58.1910486,29.7934703 56.9530811,28.9792865 55.9056432,27.9449081 C54.8582054,26.9104432 54.0297514,25.6844973 53.4298811,24.2860973 C52.8299243,22.8877838 52.5252324,21.3648432 52.5252324,19.7174486 C52.5442595,18.1466811 52.8299243,16.6812541 53.4012541,15.2924541 Z M59.4479568,13.5875459 C58.2291027,14.6124108 57.4196757,15.9724973 57.0197622,17.6773189 L70.4082162,17.6773189 C70.0368432,15.9724973 69.2369297,14.6124108 68.0180757,13.5875459 C66.7992216,12.5626811 65.3708973,12.0550919 63.7330162,12.0550919 C62.0952216,12.0454919 60.6668108,12.5626811 59.4479568,13.5875459 Z" id="Shape"></path>
                    <path d="M82.9300757,14.0856216 C82.0159135,15.0912865 81.5493189,16.4704865 81.5493189,18.1945081 L81.5493189,30.7512216 L77.2071784,30.7512216 L77.2071784,8.67407568 L81.5112649,8.67407568 L81.5112649,11.4037622 C82.0539676,10.5130378 82.768173,9.80428108 83.6442811,9.28700541 C84.5203027,8.76981622 85.558227,8.51121297 86.7675676,8.51121297 L88.2724324,8.51121297 L88.2724324,12.5818811 L86.4628757,12.5818811 C85.0249514,12.5626811 83.8442378,13.0703568 82.9300757,14.0856216 Z" id="Path"></path>
                </g>
            </g>
        </g>
    </g>
</svg>