<svg width="168" height="39" viewBox="0 0 168 39" fill="none" xmlns="http://www.w3.org/2000/svg">
<path d="M52.2248 6.50958C51.6099 4.22557 49.809 2.42472 47.525 1.80979C43.3523 0.667786 26.6614 0.667786 26.6614 0.667786C26.6614 0.667786 9.97059 0.667786 5.79787 1.76587C3.55779 2.38079 1.71301 4.22557 1.09808 6.50958C0 10.6823 0 19.3352 0 19.3352C0 19.3352 0 28.032 1.09808 32.1608C1.71301 34.4448 3.51386 36.2456 5.79787 36.8606C10.0145 38.0026 26.6614 38.0026 26.6614 38.0026C26.6614 38.0026 43.3523 38.0026 47.525 36.9045C49.809 36.2896 51.6099 34.4887 52.2248 32.2047C53.3229 28.032 53.3229 19.3791 53.3229 19.3791C53.3229 19.3791 53.3668 10.6823 52.2248 6.50958Z" fill="#7D7E85"/>
<path d="M21.3467 27.3292L35.2264 19.3352L21.3467 11.3412V27.3292Z" fill="white"/>
<path d="M77.4368 34.6644C76.3826 33.9616 75.6359 32.8636 75.1967 31.3263C74.7575 29.8329 74.5378 27.8124 74.5378 25.3527V21.9706C74.5378 19.467 74.8014 17.4465 75.2845 15.9092C75.8116 14.3719 76.6022 13.2738 77.6564 12.571C78.7545 11.8682 80.16 11.5168 81.917 11.5168C83.63 11.5168 85.0355 11.8682 86.0897 12.571C87.1438 13.2738 87.8905 14.4158 88.3737 15.9092C88.8568 17.4026 89.1204 19.423 89.1204 21.9706V25.3527C89.1204 27.8563 88.9008 29.8329 88.4176 31.3702C87.9344 32.8636 87.1878 34.0056 86.1336 34.7083C85.0794 35.4111 83.63 35.7625 81.8291 35.7625C79.9843 35.7186 78.4909 35.3672 77.4368 34.6644ZM83.3664 30.9749C83.6739 30.2282 83.8057 28.9544 83.8057 27.2414V19.9501C83.8057 18.281 83.6739 17.0512 83.3664 16.2606C83.059 15.4699 82.5758 15.1186 81.8291 15.1186C81.1263 15.1186 80.5993 15.5139 80.3357 16.2606C80.0283 17.0512 79.8965 18.281 79.8965 19.9501V27.2414C79.8965 28.9544 80.0283 30.2282 80.3357 30.9749C80.5993 31.7216 81.1263 32.1169 81.873 32.1169C82.5758 32.1169 83.059 31.7655 83.3664 30.9749Z" fill="#7D7E85"/>
<path d="M158.519 25.3966V26.5825C158.519 28.0759 158.563 29.2179 158.651 29.9646C158.739 30.7113 158.914 31.2823 159.222 31.5897C159.485 31.9411 159.925 32.1168 160.54 32.1168C161.33 32.1168 161.857 31.8094 162.165 31.1944C162.472 30.5795 162.604 29.5693 162.648 28.1198L167.172 28.3833C167.216 28.603 167.216 28.8665 167.216 29.2179C167.216 31.3701 166.645 32.9953 165.459 34.0494C164.273 35.1036 162.604 35.6307 160.452 35.6307C157.86 35.6307 156.059 34.7961 155.005 33.171C153.951 31.5458 153.424 29.0422 153.424 25.6162V21.5313C153.424 18.0174 153.951 15.4699 155.049 13.8447C156.147 12.2196 157.992 11.429 160.584 11.429C162.384 11.429 163.79 11.7803 164.756 12.4392C165.723 13.098 166.381 14.1522 166.777 15.5138C167.172 16.9194 167.348 18.852 167.348 21.3117V25.3087H158.519V25.3966ZM159.178 15.5577C158.914 15.9091 158.739 16.4362 158.651 17.1829C158.563 17.9296 158.519 19.0716 158.519 20.6089V22.278H162.384V20.6089C162.384 19.1155 162.341 17.9735 162.253 17.1829C162.165 16.3923 161.945 15.8652 161.682 15.5577C161.418 15.2503 160.979 15.0746 160.452 15.0746C159.837 15.0746 159.442 15.2064 159.178 15.5577Z" fill="#7D7E85"/>
<path d="M64.6113 24.9564L58.6377 3.30222H63.8646L65.9729 13.0971C66.5 15.5129 66.8953 17.5773 67.1588 19.2903H67.2906C67.4663 18.0604 67.8616 16.04 68.4765 13.141L70.6727 3.30222H75.8995L69.8381 24.9564V35.3223H64.6552V24.9564H64.6113Z" fill="#7D7E85"/>
<path d="M106.119 11.956V35.3671H101.99L101.551 32.5121H101.419C100.321 34.6644 98.6079 35.7624 96.3678 35.7624C94.8305 35.7624 93.6885 35.2354 92.9418 34.2251C92.1951 33.2149 91.8438 31.6337 91.8438 29.4375V11.956H97.1145V29.13C97.1145 30.1842 97.2463 30.9309 97.4659 31.3701C97.6855 31.8094 98.0809 32.029 98.6079 32.029C99.0472 32.029 99.4864 31.8972 99.9256 31.5897C100.365 31.3262 100.672 30.9748 100.848 30.5356V11.956H106.119Z" fill="#7D7E85"/>
<path d="M133.132 11.956V35.3671H129.003L128.563 32.5121H128.432C127.334 34.6644 125.621 35.7624 123.381 35.7624C121.843 35.7624 120.701 35.2354 119.955 34.2251C119.208 33.2149 118.856 31.6337 118.856 29.4375V11.956H124.127V29.13C124.127 30.1842 124.259 30.9309 124.479 31.3701C124.698 31.8094 125.094 32.029 125.621 32.029C126.06 32.029 126.499 31.8972 126.938 31.5897C127.378 31.3262 127.685 30.9748 127.861 30.5356V11.956H133.132Z" fill="#7D7E85"/>
<path d="M120.438 7.56375H115.211V35.3233H110.072V7.56375H104.845V3.30319H120.438V7.56375Z" fill="#7D7E85"/>
<path d="M150.569 15.6896C150.262 14.1962 149.734 13.142 149.032 12.4832C148.329 11.8243 147.319 11.4729 146.089 11.4729C145.123 11.4729 144.2 11.7365 143.366 12.3075C142.531 12.8346 141.872 13.5813 141.433 14.4597H141.389V2.11728H136.294V35.3233H140.642L141.169 33.1271H141.301C141.697 33.9177 142.311 34.5327 143.146 35.0158C143.981 35.4551 144.859 35.7186 145.869 35.7186C147.67 35.7186 148.944 34.8841 149.778 33.2589C150.613 31.6337 151.052 29.0423 151.052 25.5723V21.8828C151.008 19.2034 150.876 17.139 150.569 15.6896ZM145.737 25.2209C145.737 26.9339 145.65 28.2516 145.518 29.218C145.386 30.1843 145.123 30.887 144.815 31.2823C144.464 31.6777 144.024 31.8973 143.497 31.8973C143.058 31.8973 142.663 31.8094 142.311 31.5898C141.96 31.3702 141.653 31.0627 141.433 30.6674V17.4026C141.609 16.7877 141.916 16.2606 142.355 15.8213C142.795 15.426 143.278 15.2064 143.761 15.2064C144.288 15.2064 144.727 15.426 144.991 15.8213C145.298 16.2606 145.474 16.9634 145.606 17.9297C145.737 18.9399 145.781 20.3454 145.781 22.1463V25.2209H145.737Z" fill="#7D7E85"/>
</svg>
